<mxfile host="app.diagrams.net" modified="2021-03-04T08:21:20.367Z" agent="5.0 (Windows NT 10.0; Win64; x64) AppleWebKit/537.36 (KHTML, like Gecko) Chrome/89.0.4389.72 Safari/537.36" etag="eyDQ4ztdAIFZApNxyUws" version="14.4.3" type="github">
  <diagram id="C5RBs43oDa-KdzZeNtuy" name="Page-1">
    <mxGraphModel dx="1422" dy="794" grid="1" gridSize="10" guides="1" tooltips="1" connect="1" arrows="1" fold="1" page="1" pageScale="1" pageWidth="2339" pageHeight="3300" math="0" shadow="0">
      <root>
        <mxCell id="WIyWlLk6GJQsqaUBKTNV-0" />
        <mxCell id="WIyWlLk6GJQsqaUBKTNV-1" parent="WIyWlLk6GJQsqaUBKTNV-0" />
        <mxCell id="zJGw6DOPqM0Is_w0PtSc-1" style="edgeStyle=orthogonalEdgeStyle;rounded=0;orthogonalLoop=1;jettySize=auto;html=1;exitX=0.5;exitY=1;exitDx=0;exitDy=0;entryX=0.5;entryY=0;entryDx=0;entryDy=0;" parent="WIyWlLk6GJQsqaUBKTNV-1" edge="1">
          <mxGeometry relative="1" as="geometry">
            <mxPoint x="831" y="160" as="sourcePoint" />
            <mxPoint x="831" y="200" as="targetPoint" />
          </mxGeometry>
        </mxCell>
        <mxCell id="wueby3FvrGFlJu_bnI4B-1" value="Start" style="strokeWidth=2;html=1;shape=mxgraph.flowchart.terminator;whiteSpace=wrap;" parent="WIyWlLk6GJQsqaUBKTNV-1" vertex="1">
          <mxGeometry x="760" y="100" width="149" height="60" as="geometry" />
        </mxCell>
        <mxCell id="wueby3FvrGFlJu_bnI4B-2" value="Person_Info 클래스 생성&lt;br&gt;클래스 내의 속성&lt;br&gt;(int PH, String name)" style="verticalLabelPosition=middle;verticalAlign=middle;html=1;shape=hexagon;perimeter=hexagonPerimeter2;arcSize=6;size=0.27;labelPosition=center;align=center;" parent="WIyWlLk6GJQsqaUBKTNV-1" vertex="1">
          <mxGeometry x="1120" y="190" width="224" height="80" as="geometry" />
        </mxCell>
        <mxCell id="XJGy-mcHVmc3LLUE-I2_-26" style="edgeStyle=orthogonalEdgeStyle;rounded=0;orthogonalLoop=1;jettySize=auto;html=1;exitX=0.5;exitY=1;exitDx=0;exitDy=0;entryX=0.5;entryY=0;entryDx=0;entryDy=0;fontSize=13;" parent="WIyWlLk6GJQsqaUBKTNV-1" source="wueby3FvrGFlJu_bnI4B-3" target="XJGy-mcHVmc3LLUE-I2_-1" edge="1">
          <mxGeometry relative="1" as="geometry" />
        </mxCell>
        <mxCell id="wueby3FvrGFlJu_bnI4B-3" value="프로그램 버튼 6개, 이름번호 검색창,&lt;br&gt;정보 출력창 표시&lt;br&gt;사용자의 별도의 입력이 있을때까지 대기" style="verticalLabelPosition=middle;verticalAlign=middle;html=1;shape=hexagon;perimeter=hexagonPerimeter2;arcSize=6;size=0.27;labelPosition=center;align=center;" parent="WIyWlLk6GJQsqaUBKTNV-1" vertex="1">
          <mxGeometry x="690" y="200" width="293" height="110" as="geometry" />
        </mxCell>
        <mxCell id="XJGy-mcHVmc3LLUE-I2_-16" value="&lt;font style=&quot;font-size: 13px&quot;&gt;[추가] 버튼 눌렀을 때&lt;/font&gt;" style="edgeStyle=orthogonalEdgeStyle;rounded=0;orthogonalLoop=1;jettySize=auto;html=1;entryX=0.5;entryY=0;entryDx=0;entryDy=0;" parent="WIyWlLk6GJQsqaUBKTNV-1" source="XJGy-mcHVmc3LLUE-I2_-1" target="XJGy-mcHVmc3LLUE-I2_-5" edge="1">
          <mxGeometry x="0.8828" relative="1" as="geometry">
            <mxPoint as="offset" />
          </mxGeometry>
        </mxCell>
        <mxCell id="XJGy-mcHVmc3LLUE-I2_-18" value="[정렬] 버튼 눌렀을 때" style="edgeStyle=orthogonalEdgeStyle;rounded=0;orthogonalLoop=1;jettySize=auto;html=1;exitX=0.5;exitY=1;exitDx=0;exitDy=0;fontSize=13;entryX=0.5;entryY=0;entryDx=0;entryDy=0;" parent="WIyWlLk6GJQsqaUBKTNV-1" source="XJGy-mcHVmc3LLUE-I2_-1" target="XJGy-mcHVmc3LLUE-I2_-25" edge="1">
          <mxGeometry x="0.5714" relative="1" as="geometry">
            <mxPoint x="845" y="620" as="targetPoint" />
            <mxPoint as="offset" />
          </mxGeometry>
        </mxCell>
        <mxCell id="XJGy-mcHVmc3LLUE-I2_-19" value="[변경] 버튼 눌렀을 때" style="edgeStyle=orthogonalEdgeStyle;rounded=0;orthogonalLoop=1;jettySize=auto;html=1;fontSize=13;" parent="WIyWlLk6GJQsqaUBKTNV-1" source="XJGy-mcHVmc3LLUE-I2_-1" target="XJGy-mcHVmc3LLUE-I2_-7" edge="1">
          <mxGeometry x="0.8106" relative="1" as="geometry">
            <mxPoint as="offset" />
          </mxGeometry>
        </mxCell>
        <mxCell id="XJGy-mcHVmc3LLUE-I2_-20" value="[삭제] 버튼 눌렀을 때" style="edgeStyle=orthogonalEdgeStyle;rounded=0;orthogonalLoop=1;jettySize=auto;html=1;entryX=0.5;entryY=0;entryDx=0;entryDy=0;fontSize=13;" parent="WIyWlLk6GJQsqaUBKTNV-1" source="XJGy-mcHVmc3LLUE-I2_-1" edge="1">
          <mxGeometry x="0.878" relative="1" as="geometry">
            <mxPoint x="1225" y="620" as="targetPoint" />
            <mxPoint as="offset" />
          </mxGeometry>
        </mxCell>
        <mxCell id="XJGy-mcHVmc3LLUE-I2_-21" value="[검색]버튼 눌렀을 때" style="edgeStyle=orthogonalEdgeStyle;rounded=0;orthogonalLoop=1;jettySize=auto;html=1;entryX=0.5;entryY=0;entryDx=0;entryDy=0;fontSize=13;" parent="WIyWlLk6GJQsqaUBKTNV-1" source="XJGy-mcHVmc3LLUE-I2_-1" target="XJGy-mcHVmc3LLUE-I2_-6" edge="1">
          <mxGeometry x="0.8135" relative="1" as="geometry">
            <mxPoint as="offset" />
          </mxGeometry>
        </mxCell>
        <mxCell id="XJGy-mcHVmc3LLUE-I2_-36" value="[종료] 버튼 눌렀을 때" style="edgeStyle=orthogonalEdgeStyle;rounded=0;orthogonalLoop=1;jettySize=auto;html=1;exitX=1;exitY=0.5;exitDx=0;exitDy=0;entryX=1;entryY=0.5;entryDx=0;entryDy=0;fontSize=13;entryPerimeter=0;" parent="WIyWlLk6GJQsqaUBKTNV-1" source="XJGy-mcHVmc3LLUE-I2_-1" target="XJGy-mcHVmc3LLUE-I2_-37" edge="1">
          <mxGeometry relative="1" as="geometry">
            <mxPoint x="896.5" y="938.75" as="targetPoint" />
            <Array as="points">
              <mxPoint x="1390" y="415" />
              <mxPoint x="1390" y="939" />
            </Array>
          </mxGeometry>
        </mxCell>
        <mxCell id="XJGy-mcHVmc3LLUE-I2_-1" value="해당 버튼을 클릭하였을 때" style="rhombus;whiteSpace=wrap;html=1;" parent="WIyWlLk6GJQsqaUBKTNV-1" vertex="1">
          <mxGeometry x="743.25" y="350" width="186.5" height="130" as="geometry" />
        </mxCell>
        <mxCell id="XJGy-mcHVmc3LLUE-I2_-29" style="edgeStyle=orthogonalEdgeStyle;rounded=0;orthogonalLoop=1;jettySize=auto;html=1;fontSize=13;entryX=0.5;entryY=0;entryDx=0;entryDy=0;" parent="WIyWlLk6GJQsqaUBKTNV-1" source="XJGy-mcHVmc3LLUE-I2_-5" target="XJGy-mcHVmc3LLUE-I2_-27" edge="1">
          <mxGeometry relative="1" as="geometry">
            <Array as="points">
              <mxPoint x="445" y="710" />
              <mxPoint x="837" y="710" />
            </Array>
          </mxGeometry>
        </mxCell>
        <mxCell id="XJGy-mcHVmc3LLUE-I2_-5" value="Input 메소드 실행" style="rounded=1;whiteSpace=wrap;html=1;absoluteArcSize=1;arcSize=14;strokeWidth=2;" parent="WIyWlLk6GJQsqaUBKTNV-1" vertex="1">
          <mxGeometry x="390" y="620" width="110" height="37.5" as="geometry" />
        </mxCell>
        <mxCell id="XJGy-mcHVmc3LLUE-I2_-35" style="edgeStyle=orthogonalEdgeStyle;rounded=0;orthogonalLoop=1;jettySize=auto;html=1;entryX=0.5;entryY=0;entryDx=0;entryDy=0;fontSize=13;" parent="WIyWlLk6GJQsqaUBKTNV-1" source="XJGy-mcHVmc3LLUE-I2_-6" target="XJGy-mcHVmc3LLUE-I2_-27" edge="1">
          <mxGeometry relative="1" as="geometry">
            <Array as="points">
              <mxPoint x="635" y="710" />
              <mxPoint x="837" y="710" />
            </Array>
          </mxGeometry>
        </mxCell>
        <mxCell id="XJGy-mcHVmc3LLUE-I2_-6" value="Search 메소드&amp;nbsp;&amp;nbsp;실행" style="rounded=1;whiteSpace=wrap;html=1;absoluteArcSize=1;arcSize=14;strokeWidth=2;" parent="WIyWlLk6GJQsqaUBKTNV-1" vertex="1">
          <mxGeometry x="580" y="620" width="120" height="37.5" as="geometry" />
        </mxCell>
        <mxCell id="XJGy-mcHVmc3LLUE-I2_-34" style="edgeStyle=orthogonalEdgeStyle;rounded=0;orthogonalLoop=1;jettySize=auto;html=1;entryX=0.5;entryY=0;entryDx=0;entryDy=0;fontSize=13;" parent="WIyWlLk6GJQsqaUBKTNV-1" source="XJGy-mcHVmc3LLUE-I2_-7" target="XJGy-mcHVmc3LLUE-I2_-27" edge="1">
          <mxGeometry relative="1" as="geometry">
            <Array as="points">
              <mxPoint x="1050" y="710" />
              <mxPoint x="837" y="710" />
            </Array>
          </mxGeometry>
        </mxCell>
        <mxCell id="XJGy-mcHVmc3LLUE-I2_-7" value="Change 메소드&amp;nbsp;실행" style="rounded=1;whiteSpace=wrap;html=1;absoluteArcSize=1;arcSize=14;strokeWidth=2;" parent="WIyWlLk6GJQsqaUBKTNV-1" vertex="1">
          <mxGeometry x="990" y="620" width="120" height="37.5" as="geometry" />
        </mxCell>
        <mxCell id="XJGy-mcHVmc3LLUE-I2_-33" style="edgeStyle=orthogonalEdgeStyle;rounded=0;orthogonalLoop=1;jettySize=auto;html=1;fontSize=13;entryX=0.5;entryY=0;entryDx=0;entryDy=0;" parent="WIyWlLk6GJQsqaUBKTNV-1" source="XJGy-mcHVmc3LLUE-I2_-23" target="XJGy-mcHVmc3LLUE-I2_-27" edge="1">
          <mxGeometry relative="1" as="geometry">
            <mxPoint x="830" y="770" as="targetPoint" />
            <Array as="points">
              <mxPoint x="1225" y="710" />
              <mxPoint x="837" y="710" />
            </Array>
          </mxGeometry>
        </mxCell>
        <mxCell id="XJGy-mcHVmc3LLUE-I2_-23" value="&lt;span style=&quot;color: rgb(0 , 0 , 0) ; font-family: &amp;#34;helvetica&amp;#34; ; font-size: 12px ; font-style: normal ; font-weight: 400 ; letter-spacing: normal ; text-align: center ; text-indent: 0px ; text-transform: none ; word-spacing: 0px ; background-color: rgb(248 , 249 , 250) ; display: inline ; float: none&quot;&gt;Delete&amp;nbsp;&lt;span style=&quot;font-family: &amp;#34;helvetica&amp;#34;&quot;&gt;메소드&amp;nbsp;&lt;/span&gt;실행&lt;/span&gt;" style="rounded=1;whiteSpace=wrap;html=1;absoluteArcSize=1;arcSize=14;strokeWidth=2;" parent="WIyWlLk6GJQsqaUBKTNV-1" vertex="1">
          <mxGeometry x="1170" y="620" width="110" height="37.5" as="geometry" />
        </mxCell>
        <mxCell id="XJGy-mcHVmc3LLUE-I2_-31" style="edgeStyle=orthogonalEdgeStyle;rounded=0;orthogonalLoop=1;jettySize=auto;html=1;entryX=0.5;entryY=0;entryDx=0;entryDy=0;fontSize=13;" parent="WIyWlLk6GJQsqaUBKTNV-1" source="XJGy-mcHVmc3LLUE-I2_-25" target="XJGy-mcHVmc3LLUE-I2_-27" edge="1">
          <mxGeometry relative="1" as="geometry" />
        </mxCell>
        <mxCell id="XJGy-mcHVmc3LLUE-I2_-25" value="&lt;span&gt;Arrange&amp;nbsp;&lt;/span&gt;메소드&amp;nbsp;실행" style="rounded=1;whiteSpace=wrap;html=1;absoluteArcSize=1;arcSize=14;strokeWidth=2;" parent="WIyWlLk6GJQsqaUBKTNV-1" vertex="1">
          <mxGeometry x="771.5" y="620" width="130" height="37.5" as="geometry" />
        </mxCell>
        <mxCell id="XJGy-mcHVmc3LLUE-I2_-28" style="edgeStyle=orthogonalEdgeStyle;rounded=0;orthogonalLoop=1;jettySize=auto;html=1;fontSize=13;entryX=0;entryY=0.5;entryDx=0;entryDy=0;exitX=0;exitY=0.5;exitDx=0;exitDy=0;" parent="WIyWlLk6GJQsqaUBKTNV-1" source="XJGy-mcHVmc3LLUE-I2_-27" target="wueby3FvrGFlJu_bnI4B-3" edge="1">
          <mxGeometry relative="1" as="geometry">
            <mxPoint x="270" y="730" as="targetPoint" />
            <mxPoint x="800" y="935" as="sourcePoint" />
            <Array as="points">
              <mxPoint x="737" y="825" />
              <mxPoint x="300" y="825" />
              <mxPoint x="300" y="255" />
            </Array>
          </mxGeometry>
        </mxCell>
        <mxCell id="XJGy-mcHVmc3LLUE-I2_-27" value="기능 종료 후 대기화면으로 복귀" style="rounded=1;whiteSpace=wrap;html=1;absoluteArcSize=1;arcSize=14;strokeWidth=2;fontSize=13;" parent="WIyWlLk6GJQsqaUBKTNV-1" vertex="1">
          <mxGeometry x="736.5" y="780" width="200" height="70" as="geometry" />
        </mxCell>
        <mxCell id="XJGy-mcHVmc3LLUE-I2_-37" value="End" style="strokeWidth=2;html=1;shape=mxgraph.flowchart.terminator;whiteSpace=wrap;" parent="WIyWlLk6GJQsqaUBKTNV-1" vertex="1">
          <mxGeometry x="760" y="910" width="149" height="60" as="geometry" />
        </mxCell>
      </root>
    </mxGraphModel>
  </diagram>
</mxfile>
